<?xml version="1.0" encoding="UTF-8" standalone="no"?>
<svg width="240px" height="240px" viewBox="0 0 240 240" version="1.1" xmlns="http://www.w3.org/2000/svg" xmlns:xlink="http://www.w3.org/1999/xlink" xmlns:sketch="http://www.bohemiancoding.com/sketch/ns">
    <!-- Generator: Sketch 3.4.4 (17249) - http://www.bohemiancoding.com/sketch -->
    <title>icon</title>
    <desc>Created with Sketch.</desc>
    <defs></defs>
    <g id="Page-1" stroke="none" stroke-width="1" fill="none" fill-rule="evenodd" sketch:type="MSPage">
        <path d="M213.728019,117.949498 C212.994743,83.7777446 193.977505,54.1075639 166.067854,38.3305054 L127.08314,89.6226415 L213.728019,117.949498 Z M164.277399,37.3440265 C151.090649,30.26529 136.014235,26.25 120,26.25 C104.226622,26.25 89.3630668,30.1454169 76.3188737,37.0267123 C87.7376355,47.9123756 104.101362,60 120.465088,60 C136.669979,60 152.87487,48.145895 164.277399,37.3440265 Z M73.7679519,38.4235411 C45.9697435,54.2116337 27.033528,83.7983605 26.2737357,117.869291 L109.444187,89.6226415 L73.7679519,38.4235411 Z M26.4675653,126.437625 C29.6408347,173.228826 67.1468558,210.599781 113.99598,213.56084 L26.4675653,126.437625 Z M126.937652,213.497192 C173.329084,210.103775 210.345966,172.952026 213.528033,126.502208 L126.937652,213.497192 Z M120,240 C186.27417,240 240,186.27417 240,120 C240,53.72583 186.27417,0 120,0 C53.72583,0 0,53.72583 0,120 C0,186.27417 53.72583,240 120,240 Z" id="Oval-1" fill="#7ED321" sketch:type="MSShapeGroup"></path>
    </g>
</svg>